# xmcd CD database file
#
# Track frame offsets:
#	150
#	18037
#	38207
#	62662
#	82112
#	102975
#	119087
#	135775
#	151705
#	173912
#
# Disc length: 2530 seconds
#
# Revision: 0
# Processed by: cddbd v1.5.1PL2 Copyright (c) Steve Scherf et al.
# Submitted via: CDex 1.51
#
DISCID=7509e00a
DTITLE=Sugar beat - ５番目のデジャヴュウ
DYEAR=1991
DGENRE=JPop
TTITLE0=ファジーな恋
TTITLE1=５番目のデジャヴュウ
TTITLE2=レシピー（Sunday Version）
TTITLE3=Orquesata
TTITLE4=雨のCROWN
TTITLE5=Love Somebody
TTITLE6=ジェミニの奇跡
TTITLE7=いけない事程したくなる
TTITLE8=哀しいフォトグラフ
TTITLE9=空と海と草原
EXTD=YEAR: 1991
EXTT0=
EXTT1=
EXTT2=
EXTT3=
EXTT4=
EXTT5=
EXTT6=
EXTT7=
EXTT8=
EXTT9=
PLAYORDER=
